<svg xmlns="http://www.w3.org/2000/svg" width="512" height="512" viewBox="0 0 512 512"><path d="M256 65.353c-108.81 0-206 73.248-206 173.431 0 35.533 12.684 70.421 35.135 97.493.948 31.723-17.552 77.223-34.217 110.37 44.665-8.147 108.165-26.147 136.963-43.95 158.557 38.939 274.119-59.02 274.119-163.914 0-100.732-97.868-173.43-206-173.43zm30.467 267.38h-52.126v-117.756h52.126v117.756zm-26.063-142.218c-15.535 0-28.128-12.596-28.128-28.13s12.593-28.129 28.128-28.129 28.127 12.595 28.127 28.129-12.592 28.13-28.127 28.13z"/></svg>