<svg xmlns="http://www.w3.org/2000/svg" width="512" height="512" viewBox="0 0 512 512"><path d="M379.058 310.255v21.426c-52.058 3.918-96.014 12.95-131.4 26.99V183.856c36.44-22.668 88.647-31.357 131.4-34.944v37.567l36-35.78v-39.854c-70.83 2.16-140 13.548-185.4 41.812-45.4-28.264-114.57-39.65-185.4-41.812v255c60.826 1.856 120.426 10.517 164.802 30.823 13.085 5.99 28.128 5.982 41.214-.006 44.374-20.305 103.968-28.96 164.786-30.818V274.02l-36.002 36.235zm-167.4 48.413c-35.388-14.04-79.343-23.074-131.4-26.987V148.91c42.753 3.587 94.96 12.276 131.4 34.944v174.814zm100.697-55.038c-13.045 3.13-25.685 6.786-38.252 11.055V293.61c13.766-4.456 27.654-8.228 42.08-11.405l-3.828 21.425zm22.834-44.874l-8.45 41.156 41.873-7.73-33.428-33.426zm99.12-99.124l33.43 33.43-89.446 89.443-33.43-33.43 89.444-89.443z"/></svg>