<svg xmlns="http://www.w3.org/2000/svg" width="512" height="512" viewBox="0 0 512 512"><path d="M461.633 250.645l.367-3.82c-22.896-2.22-45.667-2.418-67.79-.73 3.557-11.346 5.43-24.163 5.295-38.738-.292-30.965-10.616-55.08-26.843-75.096 3.116-18.85.77-37.7-5.11-56.56-23.188 1.9-44.054 9.497-62.635 22.69-34.725-7.044-69.447-7.493-104.172 0-21.673-14.627-42.956-21.802-63.91-22.686-6.21 20.766-7.168 41.234-1.916 61.358-18.28 19.398-25.27 42.945-24.93 69.02.196 14.927 2.496 28.21 6.74 39.95-21.797-1.597-44.2-1.384-66.73.8l.364 3.82c22.947-2.23 45.76-2.41 67.92-.68.813 1.975 1.632 3.94 2.566 5.816-24.01-.633-45.617 1.453-65.853 6.43l.913 3.723c20.54-5.05 42.54-7.08 67.11-6.254 16.245 28.865 47.52 45.825 93.062 51.206-10.58 8.595-16.27 18.73-17.734 30.2h-24.12c-32.395 0-41.227-41.302-74.78-37.227C132 320 125.5 371.598 177.588 371.598h21.88v47.297c.234 7.643-3.093 12.754-8.47 16.297 18.655 1.884 32.675-7.43 32.675-18.854V353.82l5.833-6v72.992c.245 7.265-3.284 11.392-7.03 15.34 16.433.653 31.89-2.63 32.59-16.616V349.68s5.757-3.6 5.757 0v66.58c.17 11.8 10.36 21.366 31.953 19.892-5.776-4.65-7.55-9.35-7.55-16.15v-72.18s5.95-.307 5.95 6v60.88c0 13.55 16.268 19.14 34.83 18.615-6.08-4.558-10.196-9.99-10.223-17.256V342.85c-.63-10.762-5.003-20.906-13.582-30.358 41.63-6.393 71.64-23.01 86.58-52.797 24.65-.846 46.718 1.184 67.31 6.247l.914-3.724c-20.393-5.014-42.18-7.096-66.415-6.415.84-1.89 1.67-3.79 2.39-5.783 22.39-1.798 45.456-1.622 68.66.632zM114 310.023c-1.023 0-1.853-.588-1.853-1.313 0-.728.83-1.315 1.853-1.315 1.024 0 1.854.588 1.854 1.315 0 .726-.83 1.313-1.854 1.313zm5.833 3.98c-1.137 0-2.06-.653-2.06-1.46s.923-1.462 2.06-1.462 2.06.66 2.06 1.467-.923 1.46-2.06 1.46zm5.917 5.17c-1.333 0-2.415-.767-2.415-1.713s1.082-1.714 2.415-1.714 2.416.768 2.416 1.714-1.083 1.712-2.416 1.712zm5.75 6.206c-1.56 0-2.825-.9-2.825-2.008s1.265-2.005 2.825-2.005 2.825.9 2.825 2.005-1.265 2.003-2.825 2.003zm6.333 7.01c-1.733 0-3.14-.996-3.14-2.226s1.407-2.228 3.14-2.228 3.14.997 3.14 2.227-1.407 2.226-3.14 2.226zm7.334 7.123c-1.926 0-3.488-1.107-3.488-2.474s1.56-2.476 3.483-2.476c1.925 0 3.487 1.11 3.487 2.476s-1.56 2.476-3.486 2.476zm9.916 6.774c-2.14 0-3.875-1.23-3.875-2.75s1.735-2.75 3.875-2.75 3.875 1.23 3.875 2.75-1.735 2.75-3.875 2.75zm12.292 3.625c-2.14 0-3.875-1.23-3.875-2.75 0-1.518 1.735-2.75 3.875-2.75s3.875 1.232 3.875 2.75c0 1.52-1.735 2.75-3.875 2.75zm12.958.417c-2.14 0-3.875-1.23-3.875-2.75s1.735-2.75 3.875-2.75 3.875 1.23 3.875 2.75-1.735 2.75-3.875 2.75zm12.792.25c-2.14 0-3.875-1.23-3.875-2.75s1.735-2.75 3.875-2.75 3.875 1.23 3.875 2.75-1.735 2.75-3.875 2.75z"/></svg>