<svg xmlns="http://www.w3.org/2000/svg" width="512" height="512" viewBox="0 0 512 512"><path d="M462 128.223c-15.158 6.724-31.45 11.27-48.547 13.31 17.45-10.46 30.854-27.025 37.164-46.764-16.333 9.682-34.422 16.72-53.676 20.51-15.413-16.43-37.38-26.69-61.693-26.69-54.56 0-94.668 50.91-82.337 103.782-70.25-3.524-132.535-37.177-174.224-88.314-22.142 37.983-11.485 87.69 26.158 112.85-13.853-.438-26.89-4.24-38.284-10.574-.918 39.162 27.145 75.78 67.794 83.95-11.895 3.236-24.925 3.977-38.17 1.446 10.755 33.58 41.973 58.018 78.96 58.7-35.54 27.85-80.297 40.29-125.144 35.005 37.406 23.982 81.837 37.977 129.57 37.977 156.933 0 245.596-132.55 240.252-251.435 16.517-11.917 30.846-26.804 42.178-43.755z"/></svg>